<svg xmlns="http://www.w3.org/2000/svg" class="editor-view__logo-preview" data-v-04588dbe="" data-v-0a059b40="" width="369.8999938964844" height="54" viewBox="0 0 369.8999938964844 54">
  <svg id="mark" viewBox="0 0 100 100" width="54" height="54" x="0" y="0" data-v-04588dbe="" style="fill: rgb(0, 0, 0);">
    <rect x="0" y="0" width="100%" height="100%" fill="none" data-v-04588dbe=""></rect>
    <g data-v-04588dbe="">
      <path fill= "white" xmlns="http://www.w3.org/2000/svg" d="M49.993,0C22.386,0,0,22.386,0,49.992c0,27.613,22.386,49.993,49.993,49.993c27.612,0,49.992-22.38,49.992-49.993  C99.985,22.386,77.605,0,49.993,0z M35.047,74.5c0,1.114-0.911,2.032-2.024,2.032H22.864c-1.112,0-2.031-0.918-2.031-2.032V53.084  c0-1.112,0.919-2.03,2.031-2.03h10.158c1.113,0,2.024,0.918,2.024,2.03V74.5z M55.649,74.5c0,1.114-0.914,2.032-2.037,2.032H43.464  c-1.116,0-2.031-0.918-2.031-2.032V37.949c0-1.112,0.915-2.023,2.031-2.023h10.148c1.123,0,2.037,0.911,2.037,2.023V74.5z   M76.242,74.5c0,1.114-0.911,2.032-2.03,2.032H64.063c-1.113,0-2.031-0.918-2.031-2.032V22.21c0-1.113,0.918-2.024,2.031-2.024  h10.148c1.119,0,2.03,0.911,2.03,2.024V74.5z">
      </path>
    </g>
  </svg>
  <svg id="name" viewBox="0 0 299.8984375 43.75390625" width="299.8984375" height="43.75390625" x="70" y="5.123046875" data-v-04588dbe="" style="fill: rgb(0, 0, 0);">
    <rect x="0" y="0" width="100%" height="100%" fill="none" data-v-04588dbe=""></rect>
    <g data-v-04588dbe="">
      <path xmlns="http://www.w3.org/2000/svg" fill="white" d="M0 1.24L8.80 1.24L17.21 24.95L25.56 1.24L34.41 1.24L34.41 33.94L27.65 33.94L27.65 25.00L28.32 9.57L19.50 33.94L14.87 33.94L6.06 9.59L6.74 25.00L6.74 33.94L0 33.94L0 1.24ZM46.72 9.64L46.72 33.94L40.21 33.94L40.21 9.64L46.72 9.64ZM39.82 3.35L39.82 3.35Q39.82 1.89 40.80 0.94Q41.78 0 43.46 0L43.46 0Q45.12 0 46.11 0.94Q47.10 1.89 47.10 3.35L47.10 3.35Q47.10 4.83 46.10 5.77Q45.10 6.72 43.46 6.72Q41.82 6.72 40.82 5.77Q39.82 4.83 39.82 3.35ZM51.93 9.64L58.04 9.64L58.24 12.44Q60.85 9.19 65.23 9.19L65.23 9.19Q69.09 9.19 70.98 11.46Q72.86 13.72 72.91 18.24L72.91 18.24L72.91 33.94L66.42 33.94L66.42 18.40Q66.42 16.33 65.52 15.40Q64.62 14.46 62.53 14.46L62.53 14.46Q59.79 14.46 58.42 16.80L58.42 16.80L58.42 33.94L51.93 33.94L51.93 9.64ZM76.82 21.85L76.82 21.56Q76.82 17.95 78.21 15.12Q79.60 12.29 82.22 10.74Q84.83 9.19 88.29 9.19L88.29 9.19Q93.21 9.19 96.32 12.20Q99.43 15.21 99.79 20.37L99.79 20.37L99.84 22.03Q99.84 27.63 96.72 31.01Q93.59 34.39 88.34 34.39Q83.08 34.39 79.95 31.02Q76.82 27.65 76.82 21.85L76.82 21.85ZM83.31 22.03L83.31 22.03Q83.31 25.49 84.61 27.32Q85.91 29.15 88.34 29.15L88.34 29.15Q90.70 29.15 92.02 27.35Q93.35 25.54 93.35 21.56L93.35 21.56Q93.35 18.17 92.02 16.31Q90.70 14.44 88.29 14.44L88.29 14.44Q85.91 14.44 84.61 16.30Q83.31 18.15 83.31 22.03ZM117.58 9.48L117.49 15.72Q116.17 15.54 115.16 15.54L115.16 15.54Q111.47 15.54 110.33 18.04L110.33 18.04L110.33 33.94L103.84 33.94L103.84 9.64L109.97 9.64L110.15 12.53Q112.10 9.19 115.56 9.19L115.56 9.19Q116.64 9.19 117.58 9.48L117.58 9.48ZM127.47 9.64L127.47 33.94L120.95 33.94L120.95 9.64L127.47 9.64ZM120.57 3.35L120.57 3.35Q120.57 1.89 121.55 0.94Q122.52 0 124.21 0L124.21 0Q125.87 0 126.86 0.94Q127.85 1.89 127.85 3.35L127.85 3.35Q127.85 4.83 126.85 5.77Q125.85 6.72 124.21 6.72Q122.57 6.72 121.57 5.77Q120.57 4.83 120.57 3.35ZM134.09 3.66L140.58 3.66L140.58 9.64L144.74 9.64L144.74 14.40L140.58 14.40L140.58 26.53Q140.58 27.87 141.10 28.46Q141.62 29.04 143.08 29.04L143.08 29.04Q144.15 29.04 144.99 28.88L144.99 28.88L144.99 33.80Q143.08 34.39 141.05 34.39L141.05 34.39Q134.23 34.39 134.09 27.49L134.09 27.49L134.09 14.40L130.54 14.40L130.54 9.64L134.09 9.64L134.09 3.66ZM152.91 9.64L157.43 24.75L161.92 9.64L168.88 9.64L159.11 37.71L158.57 38.99Q156.40 43.75 151.39 43.75L151.39 43.75Q149.97 43.75 148.51 43.33L148.51 43.33L148.51 38.41L149.50 38.43Q151.34 38.43 152.25 37.87Q153.16 37.31 153.68 36.00L153.68 36.00L154.44 34.01L145.93 9.64L152.91 9.64ZM209.20 16.76L209.20 29.81Q207.38 31.98 204.06 33.19Q200.73 34.39 196.69 34.39L196.69 34.39Q192.45 34.39 189.24 32.53Q186.04 30.68 184.30 27.16Q182.56 23.63 182.52 18.87L182.52 18.87L182.52 16.64Q182.52 11.75 184.17 8.16Q185.82 4.58 188.93 2.68Q192.04 0.79 196.22 0.79L196.22 0.79Q202.04 0.79 205.32 3.56Q208.59 6.33 209.20 11.63L209.20 11.63L202.64 11.63Q202.19 8.83 200.65 7.52Q199.12 6.22 196.42 6.22L196.42 6.22Q192.98 6.22 191.19 8.80Q189.39 11.39 189.37 16.49L189.37 16.49L189.37 18.58Q189.37 23.72 191.32 26.35Q193.28 28.97 197.05 28.97L197.05 28.97Q200.85 28.97 202.46 27.36L202.46 27.36L202.46 21.72L196.33 21.72L196.33 16.76L209.20 16.76ZM234.87 33.94L228.32 33.94Q227.87 33.06 227.66 31.76L227.66 31.76Q225.31 34.39 221.53 34.39L221.53 34.39Q217.96 34.39 215.61 32.32Q213.27 30.25 213.27 27.11L213.27 27.11Q213.27 23.25 216.13 21.18Q218.99 19.11 224.41 19.09L224.41 19.09L227.39 19.09L227.39 17.70Q227.39 16.01 226.53 15.00Q225.67 13.99 223.80 13.99L223.80 13.99Q222.16 13.99 221.23 14.78Q220.30 15.57 220.30 16.94L220.30 16.94L213.81 16.94Q213.81 14.82 215.11 13.03Q216.41 11.23 218.79 10.21Q221.17 9.19 224.14 9.19L224.14 9.19Q228.63 9.19 231.27 11.44Q233.91 13.70 233.91 17.79L233.91 17.79L233.91 28.32Q233.93 31.78 234.87 33.56L234.87 33.56L234.87 33.94ZM222.95 29.42L222.95 29.42Q224.38 29.42 225.60 28.78Q226.81 28.14 227.39 27.07L227.39 27.07L227.39 22.89L224.97 22.89Q220.09 22.89 219.78 26.26L219.78 26.26L219.76 26.64Q219.76 27.85 220.61 28.64Q221.46 29.42 222.95 29.42ZM238.89 9.64L244.98 9.64L245.18 12.35Q247.77 9.19 252.17 9.19L252.17 9.19Q256.86 9.19 258.62 12.89L258.62 12.89Q261.18 9.19 265.92 9.19L265.92 9.19Q269.87 9.19 271.80 11.49Q273.73 13.79 273.73 18.42L273.73 18.42L273.73 33.94L267.22 33.94L267.22 18.44Q267.22 16.37 266.41 15.42Q265.60 14.46 263.56 14.46L263.56 14.46Q260.64 14.46 259.51 17.25L259.51 17.25L259.54 33.94L253.04 33.94L253.04 18.46Q253.04 16.35 252.21 15.41Q251.38 14.46 249.38 14.46L249.38 14.46Q246.62 14.46 245.39 16.76L245.39 16.76L245.39 33.94L238.89 33.94L238.89 9.64ZM289.90 34.39L289.90 34.39Q284.56 34.39 281.20 31.11Q277.84 27.83 277.84 22.37L277.84 22.37L277.84 21.74Q277.84 18.08 279.26 15.19Q280.67 12.31 283.27 10.75Q285.86 9.19 289.18 9.19L289.18 9.19Q294.17 9.19 297.03 12.33Q299.90 15.48 299.90 21.25L299.90 21.25L299.90 23.90L284.42 23.90Q284.74 26.28 286.32 27.72Q287.90 29.15 290.33 29.15L290.33 29.15Q294.08 29.15 296.19 26.44L296.19 26.44L299.38 30.01Q297.92 32.07 295.43 33.23Q292.94 34.39 289.90 34.39ZM289.16 14.44L289.16 14.44Q287.23 14.44 286.03 15.75Q284.83 17.05 284.49 19.47L284.49 19.47L293.52 19.47L293.52 18.96Q293.47 16.80 292.35 15.62Q291.23 14.44 289.16 14.44Z">
      </path>
    </g>
  </svg>
</svg>
