<svg xmlns="http://www.w3.org/2000/svg" class="editor-view__logo-preview" data-v-04588dbe="" data-v-0a059b40="" width="369.8999938964844" height="54" viewBox="0 0 369.8999938964844 54">
  <svg id="mark" viewBox="0 0 100 100" width="54" height="54" x="0" y="0" data-v-04588dbe="" style="fill: rgb(0, 0, 0);">
    <rect x="0" y="0" width="100%" height="100%" fill="none" data-v-04588dbe=""></rect>
    <g data-v-04588dbe="">
      <path xmlns="http://www.w3.org/2000/svg" d="M49.993,0C22.386,0,0,22.386,0,49.992c0,27.613,22.386,49.993,49.993,49.993c27.612,0,49.992-22.38,49.992-49.993  C99.985,22.386,77.605,0,49.993,0z M35.047,74.5c0,1.114-0.911,2.032-2.024,2.032H22.864c-1.112,0-2.031-0.918-2.031-2.032V53.084  c0-1.112,0.919-2.03,2.031-2.03h10.158c1.113,0,2.024,0.918,2.024,2.03V74.5z M55.649,74.5c0,1.114-0.914,2.032-2.037,2.032H43.464  c-1.116,0-2.031-0.918-2.031-2.032V37.949c0-1.112,0.915-2.023,2.031-2.023h10.148c1.123,0,2.037,0.911,2.037,2.023V74.5z   M76.242,74.5c0,1.114-0.911,2.032-2.03,2.032H64.063c-1.113,0-2.031-0.918-2.031-2.032V22.21c0-1.113,0.918-2.024,2.031-2.024  h10.148c1.119,0,2.03,0.911,2.03,2.024V74.5z">
      </path>
    </g>
  </svg>
</svg>