<svg width="96" height="96" xmlns="http://www.w3.org/2000/svg" xmlns:xlink="http://www.w3.org/1999/xlink" xml:space="preserve" overflow="hidden"><defs><clipPath id="clip0"><rect x="592" y="312" width="96" height="96"/></clipPath></defs><g clip-path="url(#clip0)" transform="translate(-592 -312)"><path d="M677.4 370.7 677.4 363.6C677.4 358.8 669.7 355.6 660.4 354.3L660.4 348.6C660.4 347 659.5 344.8 655.4 342.7L655.4 335.6C655.4 329.1 641.5 325.6 628.4 325.6 615.3 325.6 601.4 329.1 601.4 335.6L601.4 343.6C601.4 346 603.3 348 606.4 349.6L606.4 356.6C606.4 356.6 606.4 356.6 606.4 356.7 602.3 358.8 601.4 361.1 601.4 362.6L601.4 370.6C601.4 377.1 615.3 380.6 628.4 380.6L628.4 384.6C628.4 391.1 642.3 394.6 655.4 394.6 668.5 394.6 682.4 391.1 682.4 384.6L682.4 376.6C682.4 375.1 681.5 372.8 677.4 370.7ZM680.4 376.7C680.4 380.5 670.1 384.7 655.4 384.7 643.7 384.7 634.8 382 631.6 379 631.6 379 631.6 379 631.6 379 637.7 380.9 644 381.8 650.3 381.7 662.5 381.7 675.5 378.6 677.1 373 679.3 374.1 680.4 375.4 680.4 376.7ZM663.4 386.2 663.4 392.2C662.1 392.3 660.8 392.5 659.4 392.5L659.4 386.5C660.8 386.5 662.1 386.4 663.4 386.2ZM665.4 386C666.8 385.8 668.1 385.6 669.4 385.3L669.4 391.2C668.2 391.5 666.8 391.7 665.4 391.9L665.4 386ZM671.4 384.8C672.8 384.5 674.1 384 675.4 383.5L675.4 389.3C674.1 389.9 672.8 390.3 671.4 390.7L671.4 384.8ZM639.4 390.7C638 390.3 636.7 389.9 635.4 389.3L635.4 383.5C636.7 384 638 384.4 639.4 384.8L639.4 390.7ZM641.4 385.3C642.7 385.6 644 385.8 645.4 386L645.4 392C644 391.8 642.6 391.5 641.4 391.3L641.4 385.3ZM647.4 386.2C648.7 386.3 650.1 386.5 651.4 386.5L651.4 392.5C650 392.4 648.7 392.3 647.4 392.2L647.4 386.2ZM623.4 363.7 623.4 364C622 363.8 620.6 363.5 619.4 363.3L619.4 357.4C620.7 357.7 622 357.9 623.4 358.1L623.4 363.7ZM625.4 371.7 625.4 367.7C626.3 368.5 627.3 369.2 628.4 369.7L628.4 375.4C626.5 374.1 625.4 372.9 625.4 371.7L625.4 371.7ZM675.4 371.7C675.4 372.9 674.3 374.2 672.4 375.3L672.4 369.6C673.5 369.1 674.5 368.4 675.4 367.6L675.4 371.7ZM670.4 376.3C669.1 376.9 667.8 377.3 666.4 377.7L666.4 371.8C667.8 371.5 669.1 371 670.4 370.5L670.4 376.3ZM664.4 378.2C663.2 378.5 661.8 378.7 660.4 378.9L660.4 372.9C661.8 372.7 663.1 372.5 664.4 372.2L664.4 378.2ZM658.4 379.2C657.1 379.3 655.8 379.5 654.4 379.5L654.4 373.5C655.7 373.4 657.1 373.3 658.4 373.2L658.4 379.2ZM652.4 379.6C651.7 379.6 651.1 379.6 650.4 379.6 649.7 379.6 649.1 379.6 648.4 379.6L648.4 373.6C649.1 373.6 649.7 373.6 650.4 373.6 651.1 373.6 651.7 373.6 652.4 373.6L652.4 379.6ZM646.4 379.6C645 379.5 643.7 379.4 642.4 379.3L642.4 373.3C643.7 373.4 645.1 373.6 646.4 373.6L646.4 379.6ZM640.4 379C639 378.8 637.6 378.5 636.4 378.3L636.4 372.4C637.7 372.7 639 372.9 640.4 373.1L640.4 379ZM634.4 377.7C633 377.3 631.7 376.9 630.4 376.3L630.4 370.5C631.7 371 633 371.4 634.4 371.8L634.4 377.7ZM675.4 363.7C675.4 367.5 665.1 371.7 650.4 371.7 635.7 371.7 625.4 367.5 625.4 363.7 625.4 359.9 635.7 355.7 650.4 355.7 665.1 355.7 675.4 359.9 675.4 363.7ZM625.4 359.7 625.4 358.2C626 358.3 626.6 358.3 627.2 358.4 626.6 358.8 626 359.2 625.4 359.7ZM656.7 353.9C657.3 353.5 657.9 353.1 658.5 352.6L658.5 354.1C657.8 354 657.3 354 656.7 353.9ZM655.2 344.9C657.3 346.1 658.4 347.4 658.4 348.6 658.4 350.3 656.2 352.2 652.5 353.6 651.8 353.6 651.1 353.6 650.4 353.6 643.4 353.6 636.1 354.6 630.9 356.6 620.4 356.3 612.6 353.8 609.7 351 609.7 351 609.7 351 609.7 351 615.8 352.9 622.1 353.8 628.4 353.7 640.6 353.7 653.6 350.6 655.2 344.9ZM617.4 356.8 617.4 362.7C616 362.3 614.7 361.9 613.4 361.3L613.4 355.5C614.7 356 616.1 356.5 617.4 356.8ZM611.4 354.6 611.4 360.3C609.5 359.1 608.4 357.9 608.4 356.7L608.4 352.7C609.3 353.4 610.3 354.1 611.4 354.6ZM608.4 348.3 608.4 342.5C609.7 343 611 343.4 612.4 343.8L612.4 349.7C611.1 349.3 609.7 348.9 608.4 348.3ZM614.4 350.2 614.4 344.3C615.7 344.6 617 344.8 618.4 345L618.4 351C617 350.8 615.7 350.5 614.4 350.2ZM620.4 351.2 620.4 345.2C621.7 345.3 623.1 345.5 624.4 345.5L624.4 351.5C623 351.5 621.7 351.4 620.4 351.2ZM626.4 351.6 626.4 345.6C627.1 345.6 627.7 345.6 628.4 345.6 629.1 345.6 629.7 345.6 630.4 345.6L630.4 351.6C629.7 351.6 629.1 351.6 628.4 351.6 627.7 351.6 627.1 351.7 626.4 351.6ZM632.4 351.6 632.4 345.6C633.7 345.5 635.1 345.4 636.4 345.3L636.4 351.3C635.1 351.4 633.8 351.5 632.4 351.6ZM638.4 351 638.4 345C639.8 344.8 641.1 344.6 642.4 344.3L642.4 350.2C641.2 350.5 639.8 350.8 638.4 351ZM644.4 349.7 644.4 343.8C645.8 343.5 647.1 343 648.4 342.5L648.4 348.3C647.1 348.9 645.8 349.3 644.4 349.7ZM650.4 347.3 650.4 341.6C651.5 341.1 652.5 340.4 653.4 339.6L653.4 343.6C653.4 344.9 652.4 346.1 650.4 347.3ZM606.4 347.3C604.5 346.1 603.4 344.9 603.4 343.7L603.4 339.7C604.3 340.5 605.3 341.2 606.4 341.7L606.4 347.3ZM603.4 335.7C603.4 331.9 613.7 327.7 628.4 327.7 643.1 327.7 653.4 331.9 653.4 335.7 653.4 339.5 643.1 343.7 628.4 343.7 613.7 343.7 603.4 339.4 603.4 335.7ZM606.9 358.7C608.7 362.4 615.5 364.8 623.4 365.9L623.4 370.4C611.4 369.6 603.4 365.9 603.4 362.6 603.4 361.3 604.7 360 606.9 358.7ZM606.4 374.3C604.5 373.1 603.4 371.9 603.4 370.7L603.4 366.7C604.3 367.5 605.3 368.2 606.4 368.7L606.4 374.3ZM612.4 376.7C611 376.3 609.7 375.9 608.4 375.3L608.4 369.5C609.7 370 611 370.4 612.4 370.8L612.4 376.7ZM618.4 378C617 377.8 615.6 377.5 614.4 377.3L614.4 371.4C615.7 371.7 617 371.9 618.4 372.1L618.4 378ZM620.4 372.2C621.4 372.3 622.4 372.4 623.5 372.5 623.6 373.2 624 373.9 624.4 374.6L624.4 378.6C623 378.5 621.7 378.4 620.4 378.3L620.4 372.2ZM626.4 376.4C627 376.8 627.7 377.2 628.4 377.6L628.4 378.6C627.7 378.6 627.1 378.6 626.4 378.6L626.4 376.4ZM630.4 384.7 630.4 380.7C631.3 381.5 632.3 382.2 633.4 382.7L633.4 388.4C631.5 387.1 630.4 385.9 630.4 384.7L630.4 384.7ZM653.4 386.6C654.1 386.6 654.7 386.6 655.4 386.6 656.1 386.6 656.7 386.6 657.4 386.6L657.4 392.6C656.7 392.6 656.1 392.6 655.4 392.6 654.7 392.6 654.1 392.6 653.4 392.6L653.4 386.6ZM677.4 382.6C678.5 382.1 679.5 381.4 680.4 380.6L680.4 384.6C680.4 385.8 679.3 387.1 677.4 388.2L677.4 382.6Z" stroke="#FFFFFF" fill="#FFFFFF"/></g></svg>