<svg xmlns="http://www.w3.org/2000/svg" class="editor-view__logo-preview" data-v-04588dbe="" data-v-0a059b40="" width="346.0599365234375" height="177.03999710083008" viewBox="0 0 346.0599365234375 177.03999710083008">
  <svg id="mark" viewBox="0 0 100 100" width="115" height="115" x="113.02996826171875" y="0" data-v-04588dbe="" style="fill: rgb(0, 0, 0);">
    <rect x="0" y="0" width="100%" height="100%"  fill="none" data-v-04588dbe=""></rect>
    <g data-v-04588dbe="">
      <g xmlns="http://www.w3.org/2000/svg">
        <path fill="white" d="M88.706,78.845l-0.099-0.283v-0.099v-0.1l-0.38-0.955l-0.099-0.198l-0.199-0.28l-0.084-0.198l-0.295-0.383l-0.185-0.295   l-0.295-0.38l-0.099-0.181l-0.085-0.114l-0.395-0.481l-0.084-0.082l-0.111-0.099l-0.38-0.38l-0.481-0.59l-0.097-0.088l-0.085-0.099   l-0.677-0.675l-0.675-0.773l-0.677-0.765l-0.762-1.055l-0.774-1.055l-0.858-1.354V67.8v-0.113l-0.973-1.437l-0.957-1.636   l-1.057-1.731l-1.072-1.635l-0.957-1.813v-0.116v-0.082l-1.156-2.032l-1.042-2.012l-1.154-2.31l-1.155-2.411l-1.069-2.312   l-1.045-2.392l-1.068-2.31v-0.084l-1.058-2.126l-0.957-2.017l-0.859-2.111l-0.115-0.099v-0.099l-0.958-2.029l-0.858-2.015   l-0.774-2.015l-0.084-0.198v-0.082l-0.873-1.833l-0.763-1.831l-0.11-0.099V26.72l-0.663-1.633l-0.677-1.635l-0.578-1.536v-0.099   v-0.082l-0.576-1.451l-0.479-1.156l-0.38-1.252v-0.087v-0.111l-0.479-1.156l-0.396-0.958l-0.38-0.958l-0.298-0.873v-0.084v-0.097   l-0.28-0.776l-0.198-0.477l-0.082-0.384l-0.114-0.477v-0.097V11.24l-0.084-0.382l-0.1-0.196l-0.182-0.477v-0.087L54.657,9.9V9.803   V9.702l-0.085-0.278l-0.099-0.295l-0.38-0.96V8.071L53.98,7.593l-0.085-0.102V7.394V7.31l-0.479-0.592L53.136,6.34l-0.113-0.102   l-0.085-0.084l-0.773-0.477l-0.38-0.295l-0.1-0.102L49.755,5l-0.958,0.084l-0.099,0.099h-0.1l-0.085,0.097h-0.195h-0.1H48.12   l-0.28,0.198l-0.199,0.082l-0.195,0.116l-0.283,0.28l-0.196,0.085l-0.084,0.111l-0.198,0.084l-0.097,0.198l-0.1,0.097l-0.085,0.184   l-0.295,0.295L46.006,7.31l-0.082,0.084v0.097l-0.113,0.102v0.082l-0.085,0.198l-0.099,0.576V8.55v0.097v0.295v0.087v0.099v0.097   l0.184,1.057v0.099v0.085v0.295v0.097v0.099l0.113,0.099v0.184l0.184,0.493l0.097,0.281l0.198,0.382v0.198v0.097v0.085   l-0.113,0.295l-0.563,0.96l-0.593,1.156l-0.66,1.335v0.116v0.082l-0.578,1.437l-0.762,1.649l-0.873,1.731v0.085l-0.873,2.029   l-0.957,2.111v0.099l-0.958,2.411l-1.057,2.491l-1.154,2.692l-1.255,2.704l-1.156,2.677l-1.153,2.706l-1.057,2.593l-1.057,2.59   l-1.058,2.59l-1.057,2.411l-0.958,2.31l-0.873,2.211l-0.873,2.213l-0.846,2.213l-0.873,2.026l-0.873,2.015v0.099l-0.76,1.918   l-0.776,1.829l-0.776,1.917l-0.66,1.636l-0.773,1.743l-0.678,1.638l-0.675,1.437l-0.662,1.35v0.084l-0.1,0.1l-0.479,1.255   l-0.578,1.057l-0.578,1.058l-0.479,0.762l-0.479,0.771l-0.099,0.198l-0.1,0.186l-0.392,0.771l-0.283,0.481l-0.38,0.576   l-0.099,0.099l-0.085,0.1l-0.295,0.479l-0.297,0.392l-0.083,0.087l-0.113,0.097l-0.283,0.479l-0.082,0.099v0.085l-0.298,0.493   l-0.099,0.295l-0.082,0.185l-0.116,0.184l-0.082,0.111l-0.1,0.087v0.097l-0.1,0.198l-0.198,0.182l-0.082,0.198l-0.113,0.099   l-0.184,0.295l-0.1,0.185v0.184l-0.082,0.195l-0.114,0.1v0.1v0.099l-0.084,0.377l-0.1,0.581v0.097l0.298,1.238l0.182,0.396   l0.48,0.677l0.378,0.281l0.595,0.394l0.479,0.085L14.088,95h0.195h0.085h0.099h0.1h0.28h0.196l0.873-0.097h0.085h0.394h0.087h0.196   l0.283-0.085h0.394h0.085h0.295l0.479-0.113l0.493-0.082l0.184-0.1h0.295l0.479-0.099l0.563-0.088h0.114h0.182l0.972-0.193h0.085   h0.099l0.958-0.198l1.156-0.198h0.099l1.437-0.28l1.548-0.28l1.635-0.295l1.916-0.383h0.099h0.1l1.831-0.479l2.014-0.295h0.1h0.196   l2.113-0.383l2.198-0.28h0.111h0.085l2.312-0.493l2.31-0.295l2.508-0.285h0.085l2.506-0.378l2.493-0.297l2.313-0.283l2.408-0.28   h0.085h0.196l2.213-0.395l2.125-0.196h0.185l2.015-0.28l2.028-0.285l1.831-0.295l1.816-0.295l1.635-0.185l1.649-0.184h0.085h0.195   l1.635-0.295l1.353-0.295l1.24-0.198h0.1l1.153-0.182l1.057-0.187l0.873-0.193h0.085l0.873-0.198h0.085l0.677-0.097L82.07,84.9   l0.479-0.182l0.395-0.099h0.085l0.198-0.1l0.394-0.099l0.365-0.082l0.396-0.114h0.098h0.099h0.085h0.198h0.097h0.099h0.198h0.085   h0.196l0.479-0.181h0.1l0.379-0.187l0.1-0.109l0.38-0.285l0.198-0.099l0.085-0.1l0.11-0.082l0.085-0.114l0.298-0.28l0.479-0.481   l0.097-0.28l0.085-0.195l0.113-0.283v-0.111l0.184-0.368v-0.195v-0.198l0.097-0.873L88.706,78.845z M78.126,78.168l-1.057,0.195   l-1.154,0.283l-1.142,0.198l-1.352,0.295l-1.55,0.295l-1.633,0.185h-0.087l-1.635,0.297l-1.829,0.278H66.59l-1.816,0.283   l-2.029,0.297l-1.918,0.295l-2.225,0.185h-0.085h-0.198l-2.21,0.379l-2.31,0.298h-0.1l-2.394,0.295l-2.509,0.368h-0.084   l-2.509,0.392l-2.508,0.38l-2.394,0.384h-0.1h-0.097l-2.313,0.477l-2.21,0.395h-0.1H36.4l-2.114,0.395l-2.126,0.282h-0.099h-0.198   l-1.816,0.479l-1.831,0.377l-1.733,0.295h-0.085h-0.111l-1.521,0.382l-1.352,0.298l-1.156,0.182h-0.099h-0.1L21.3,87.508v-0.1   V87.31l0.082-0.182l0.297-0.68l0.479-0.672l0.099-0.198l0.1-0.088l0.479-0.87l0.578-1.057l0.575-1.256v-0.082l0.1-0.116   l0.479-1.235l0.563-1.255l0.678-1.534l0.675-1.635l0.776-1.733l0.662-1.734l0.788-1.913l0.76-1.933V69.04l0.678-1.915l0.858-2.031   l0.858-2.111l0.875-2.213l0.873-2.211l0.858-2.21l0.958-2.313l0.973-2.495l0.957-2.591l1.058-2.604l1.057-2.692l1.055-2.701   l1.059-2.598l1.154-2.689l1.057-2.689l1.057-2.508l0.958-2.395l0.957-2.114v-0.099l0.678-2.012l0.773-1.746l0.774-1.722   l0.084-0.097l0.395-0.479l0.382,1.055l0.38,1.243l0.111,0.111v0.083l0.481,1.354l0.563,1.352l0.593,1.521l0.66,1.749l0.1,0.085   v0.097l0.675,1.647l0.762,1.819l0.099,0.099v0.082l0.774,1.833l0.759,2.029l0.116,0.084v0.111l0.958,2.114v0.082l0.955,2.032   l0.873,2.21l0.085,0.184v0.099l1.057,2.126l1.06,2.114l1.068,2.196l1.043,2.424l1.071,2.398l1.155,2.393l1.154,2.31v0.113v0.085   l1.156,2.113l0.084,0.097v0.102l1.153,2.026l1.058,1.916l0.099,0.085l0.1,0.113l1.142,1.813l1.068,1.736l1.058,1.633l0.099,0.1   v0.099l1.055,1.435l0.96,1.441l0.099,0.108l0.083,0.085l0.791,1.258l0.858,1.054l0.099,0.097l0.085,0.102l0.773,0.856l0.578,0.778   L78.126,78.168z"></path>
        <path fill="white" d="M60.66,71.829l-0.114-0.196l-0.084-0.285l-0.1-0.097v-0.097l-0.182-0.481l-0.113-0.196V70.39l-0.085-0.193l-0.195-0.481   l-0.102-0.099v-0.1l-0.296-0.675l-0.28-0.677l-0.283-0.958l-0.099-0.082v-0.116l-0.38-0.958l-0.395-1.238v-0.099l-0.479-1.352   l-0.479-1.338l-0.479-1.438l-0.394-1.548l-0.365-1.635v-0.098l-0.493-1.535l-0.383-1.536v-0.097v-0.102l-0.479-1.451l-0.28-1.437   v-0.084v-0.114l-0.494-1.519l-0.382-1.451l-0.394-1.34l-0.281-1.156l-0.283-1.151v-0.102v-0.097l-0.195-0.875l-0.198-0.861   l-0.085-0.182v-0.196l-0.195-0.677l-0.1-0.578v-0.1v-0.198l-0.184-0.66v-0.099V39.61l-0.111-0.297v-0.179v-0.099v-0.283   l-0.085-0.397l-0.099-0.278v-0.198l-0.196-0.675v-0.085l-0.099-0.198l-0.383-0.675v-0.087v-0.111l-0.097-0.084l-0.198-0.297   l-0.082-0.099l-0.481-0.38l-0.114-0.097l-0.082-0.087h-0.099h-0.1h-0.084l-0.114-0.111h-0.082l-0.198-0.085l-1.353-0.099h-0.479   h-0.085l-0.295,0.099l-0.295,0.085l-0.184,0.111l-0.184,0.087l-0.198,0.198l-0.196,0.082l-0.085,0.111l-0.198,0.085l-0.198,0.297   l-0.195,0.184v0.198l-0.085,0.194l-0.111,0.382L44.4,37.119v0.085v0.295v0.097v0.087l0.198,0.871v0.198l0.085,0.198l0.099,0.084   v0.099v0.097l0.097,0.199l0.087,0.367v0.111v0.085v0.297v0.097l-0.367,0.861v0.097l-0.111,0.097L44.12,42.5l-0.395,1.153v0.085   v0.111l-0.283,1.044l-0.479,1.268v0.082v0.102l-0.395,1.451l-0.28,1.437l-0.395,1.437l-0.38,1.55l-0.382,1.521l-0.394,1.633   l-0.38,1.55l-0.38,1.536l-0.396,1.535l-0.38,1.437l-0.38,1.268l-0.395,1.243l-0.479,1.151l-0.38,1.156l-0.382,1.054l-0.395,0.978   l-0.28,0.855L36.23,69.8l-0.394,0.677v0.1l-0.085,0.196l-0.295,0.662l-0.184,0.395l-0.395,0.578v0.097l-0.198,0.382l-0.196,0.479   l-0.184,0.491l-0.184,0.367l-0.111,0.296l-0.184,0.297l-0.1,0.184l-0.099,0.098v0.102l-0.295,0.476l-0.365,0.776v0.085v0.108v0.088   L32.85,76.93v0.082l-0.084,0.116l-0.1,0.66v0.099v0.097v0.102l0.184,1.055l0.593,0.861l0.858,0.575l1.057,0.198h0.1l0.479-0.099   l0.479-0.1h0.099l0.395-0.099l0.28-0.085l0.198-0.111h0.085l0.394-0.087l0.281-0.097l0.282-0.097l0.479-0.198l0.491-0.184   l0.662-0.185l0.776-0.198l0.1-0.097h0.195l0.861-0.295l0.773-0.198l1.058-0.184l1.141-0.184h0.111l1.045-0.296l1.153-0.195   l1.154-0.184l0.957-0.196l0.973-0.102h0.102h0.196l0.858-0.179l0.858-0.116l0.776-0.082h0.576h0.102h0.295l0.563-0.1h0.394h0.085   h0.196l0.282-0.099h0.196l0.677-0.088l0.38-0.108h0.1h0.195h0.198h0.185l0.858-0.085l0.198-0.102h0.097h0.099l0.085-0.097h0.114   l0.181-0.198h0.102l0.196-0.082l0.085-0.116l0.097-0.082l0.102-0.1l0.097-0.099l0.099-0.082l0.085-0.114l0.113-0.084l0.182-0.198   l0.1-0.199l0.084-0.082v-0.099v-0.198l0.114-0.296v-0.084l0.084-0.479l0.097-0.198v-0.195v-0.085v-0.198l-0.097-0.87L60.66,71.829z    M54.488,71.729l-0.563,0.1h-0.593H53.15l-0.861,0.099l-0.957,0.1h-0.111h-0.184l-0.859,0.195l-0.972,0.083h-0.1h-0.198   l-1.042,0.198l-1.154,0.198l-1.155,0.184H45.46l-1.06,0.295l-1.153,0.184l-1.156,0.196h-0.097h-0.184l-0.873,0.295h-0.1h-0.099   l0.099-0.196v-0.099l0.1-0.196l0.28-0.662l0.297-0.59v-0.085l0.098-0.1l0.382-0.858v-0.113v-0.085l0.295-0.873l0.38-0.958   l0.295-1.057l0.367-1.057l0.395-1.255v-0.097V65.49l0.395-1.354l0.367-1.35l0.392-1.538l0.283-1.535l0.395-1.551l0.382-1.632   l0.38-1.633l0.394-1.523l0.38-1.548l0.38-1.539l0.677-0.674l0.1,0.379l0.38,1.451l0.395,1.439l0.282,1.448v0.085v0.198l0.479,1.551   l0.394,1.521v0.111v0.085l0.479,1.553l0.479,1.632l0.479,1.521v0.111l0.479,1.521l0.479,1.451v0.099l0.479,1.354l0.394,1.238v0.097   v0.1l0.383,0.957l0.295,0.96l0.082,0.111v0.085l0.283,0.762l0.113,0.295H54.488z"></path>
      </g>
    </g>
  </svg>
  <svg id="name" viewBox="0 0 346.0580139160156 49.0359992980957" width="346.058" height="49.03599732621323" x="0" y="128" data-v-04588dbe="" style="fill: rgb(0, 0, 0);">
    <rect x="0" y="0" width="100%" height="100%" fill="none" data-v-04588dbe=""></rect>
    <g data-v-04588dbe="">
      <path xmlns="http://www.w3.org/2000/svg" fill="white" d="M27.32 4.55L36.57 4.55L36.57 36.85L28.70 36.85L28.70 17.48L21.48 36.85L15.13 36.85L7.87 17.43L7.87 36.85L0 36.85L0 4.55L9.29 4.55L18.35 26.91L27.32 4.55ZM46.18 8.51Q44.11 8.51 42.80 7.29Q41.49 6.07 41.49 4.28L41.49 4.28Q41.49 2.44 42.80 1.22Q44.11 0 46.18 0L46.18 0Q48.21 0 49.52 1.22Q50.83 2.44 50.83 4.28L50.83 4.28Q50.83 6.07 49.52 7.29Q48.21 8.51 46.18 8.51L46.18 8.51ZM42.23 11.18L50.09 11.18L50.09 36.85L42.23 36.85L42.23 11.18ZM71.44 10.90Q75.95 10.90 78.64 13.82Q81.33 16.74 81.33 21.85L81.33 21.85L81.33 36.85L73.51 36.85L73.51 22.91Q73.51 20.33 72.17 18.91Q70.84 17.48 68.59 17.48L68.59 17.48Q66.33 17.48 65.00 18.91Q63.66 20.33 63.66 22.91L63.66 22.91L63.66 36.85L55.80 36.85L55.80 11.18L63.66 11.18L63.66 14.58Q64.86 12.88 66.88 11.89Q68.91 10.90 71.44 10.90L71.44 10.90ZM98.49 37.21Q94.71 37.21 91.70 35.60Q88.69 33.99 86.96 31.00Q85.24 28.01 85.24 24.01L85.24 24.01Q85.24 20.06 86.99 17.04Q88.73 14.03 91.77 12.42Q94.81 10.81 98.58 10.81L98.58 10.81Q102.35 10.81 105.39 12.42Q108.42 14.03 110.17 17.04Q111.92 20.06 111.92 24.01L111.92 24.01Q111.92 27.97 110.15 30.98Q108.38 33.99 105.32 35.60Q102.26 37.21 98.49 37.21L98.49 37.21ZM98.49 30.41Q100.74 30.41 102.33 28.75Q103.91 27.09 103.91 24.01L103.91 24.01Q103.91 20.93 102.37 19.27Q100.83 17.62 98.58 17.62L98.58 17.62Q96.28 17.62 94.76 19.25Q93.24 20.88 93.24 24.01L93.24 24.01Q93.24 27.09 94.74 28.75Q96.23 30.41 98.49 30.41L98.49 30.41ZM123.97 15.46Q125.35 13.34 127.42 12.12Q129.49 10.90 132.02 10.90L132.02 10.90L132.02 19.23L129.86 19.23Q126.91 19.23 125.44 20.49Q123.97 21.76 123.97 24.93L123.97 24.93L123.97 36.85L116.10 36.85L116.10 11.18L123.97 11.18L123.97 15.46ZM139.75 8.51Q137.68 8.51 136.37 7.29Q135.06 6.07 135.06 4.28L135.06 4.28Q135.06 2.44 136.37 1.22Q137.68 0 139.75 0L139.75 0Q141.77 0 143.08 1.22Q144.39 2.44 144.39 4.28L144.39 4.28Q144.39 6.07 143.08 7.29Q141.77 8.51 139.75 8.51L139.75 8.51ZM135.79 11.18L143.66 11.18L143.66 36.85L135.79 36.85L135.79 11.18ZM160.86 30.18L163.67 30.18L163.67 36.85L159.67 36.85Q155.39 36.85 153.00 34.75Q150.60 32.66 150.60 27.92L150.60 27.92L150.60 17.71L147.48 17.71L147.48 11.18L150.60 11.18L150.60 4.92L158.47 4.92L158.47 11.18L163.62 11.18L163.62 17.71L158.47 17.71L158.47 28.01Q158.47 29.16 159.02 29.67Q159.57 30.18 160.86 30.18L160.86 30.18ZM185.75 11.18L194.26 11.18L178.16 49.04L169.69 49.04L175.58 35.97L165.14 11.18L173.93 11.18L179.86 27.23L185.75 11.18ZM236.99 14.77L228.30 14.77Q227.42 13.16 225.79 12.30Q224.16 11.45 221.95 11.45L221.95 11.45Q218.13 11.45 215.83 13.96Q213.53 16.47 213.53 20.65L213.53 20.65Q213.53 25.12 215.95 27.62Q218.36 30.13 222.59 30.13L222.59 30.13Q225.49 30.13 227.49 28.66Q229.49 27.19 230.41 24.43L230.41 24.43L220.43 24.43L220.43 18.63L237.54 18.63L237.54 25.94Q236.67 28.89 234.58 31.42Q232.48 33.95 229.26 35.51Q226.04 37.08 222.00 37.08L222.00 37.08Q217.21 37.08 213.46 34.98Q209.71 32.89 207.62 29.16Q205.53 25.44 205.53 20.65L205.53 20.65Q205.53 15.87 207.62 12.12Q209.71 8.37 213.44 6.28Q217.17 4.19 221.95 4.19L221.95 4.19Q227.75 4.19 231.72 6.99Q235.70 9.80 236.99 14.77L236.99 14.77ZM240.35 23.97Q240.35 20.01 241.84 17.02Q243.34 14.03 245.92 12.42Q248.49 10.81 251.67 10.81L251.67 10.81Q254.38 10.81 256.43 11.91Q258.47 13.02 259.58 14.81L259.58 14.81L259.58 11.18L267.44 11.18L267.44 36.85L259.58 36.85L259.58 33.21Q258.43 35.01 256.38 36.11Q254.33 37.21 251.62 37.21L251.62 37.21Q248.49 37.21 245.92 35.58Q243.34 33.95 241.84 30.93Q240.35 27.92 240.35 23.97L240.35 23.97ZM259.58 24.01Q259.58 21.07 257.94 19.37Q256.31 17.66 253.97 17.66L253.97 17.66Q251.62 17.66 249.99 19.34Q248.35 21.02 248.35 23.97L248.35 23.97Q248.35 26.91 249.99 28.63Q251.62 30.36 253.97 30.36L253.97 30.36Q256.31 30.36 257.94 28.66Q259.58 26.96 259.58 24.01L259.58 24.01ZM305.90 10.90Q310.68 10.90 313.51 13.80Q316.34 16.70 316.34 21.85L316.34 21.85L316.34 36.85L308.52 36.85L308.52 22.91Q308.52 20.42 307.21 19.07Q305.90 17.71 303.60 17.71L303.60 17.71Q301.30 17.71 299.99 19.07Q298.68 20.42 298.68 22.91L298.68 22.91L298.68 36.85L290.86 36.85L290.86 22.91Q290.86 20.42 289.55 19.07Q288.24 17.71 285.94 17.71L285.94 17.71Q283.64 17.71 282.32 19.07Q281.01 20.42 281.01 22.91L281.01 22.91L281.01 36.85L273.15 36.85L273.15 11.18L281.01 11.18L281.01 14.40Q282.21 12.79 284.14 11.84Q286.07 10.90 288.51 10.90L288.51 10.90Q291.41 10.90 293.69 12.14Q295.96 13.39 297.25 15.69L297.25 15.69Q298.59 13.57 300.89 12.24Q303.19 10.90 305.90 10.90L305.90 10.90ZM346.06 23.60Q346.06 24.70 345.92 25.90L345.92 25.90L328.12 25.90Q328.30 28.29 329.66 29.55Q331.02 30.82 332.99 30.82L332.99 30.82Q335.94 30.82 337.09 28.34L337.09 28.34L345.46 28.34Q344.82 30.87 343.14 32.89Q341.46 34.91 338.93 36.06Q336.40 37.21 333.27 37.21L333.27 37.21Q329.50 37.21 326.55 35.60Q323.61 33.99 321.95 31.00Q320.30 28.01 320.30 24.01L320.30 24.01Q320.30 20.01 321.93 17.02Q323.56 14.03 326.51 12.42Q329.45 10.81 333.27 10.81L333.27 10.81Q337.00 10.81 339.89 12.37Q342.79 13.94 344.43 16.84Q346.06 19.73 346.06 23.60L346.06 23.60ZM328.16 21.53L338.01 21.53Q338.01 19.50 336.63 18.31Q335.25 17.11 333.18 17.11L333.18 17.11Q331.20 17.11 329.84 18.26Q328.49 19.41 328.16 21.53L328.16 21.53Z">
      </path>
    </g>
  </svg>
  <!---->
</svg>